<svg id="Sparkling-Heart--Streamline-Openmoji" viewBox="0 0 32 32" xmlns="http://www.w3.org/2000/svg" height="32" width="32"><desc>Sparkling Heart Streamline Emoji: https://streamlinehq.com</desc><g id="color"><path fill="#fd5cca" d="M30.780977777777775 11.126666666666667c0 -4.429555555555555 -3.603511111111111 -8.033377777777776 -8.033377777777776 -8.033377777777776 -2.620222222222222 0 -5.048755555555555 1.2720888888888888 -6.545688888888889 3.3754666666666666 -1.4969333333333332 -2.1033777777777773 -3.9251555555555555 -3.3754666666666666 -6.545688888888889 -3.3754666666666666 -4.429555555555555 0 -8.033377777777776 3.6038222222222216 -8.033377777777776 8.033377777777776 0 1.6236444444444444 0.5000444444444444 3.218222222222222 1.418222222222222 4.552488888888889l-0.020666666666666667 0.01622222222222222L15.437022222222222 31.084888888888887h1.5297777777777777l12.036533333333333 -14.917955555555553 0.3975111111111111 -0.49804444444444446 -0.020933333333333335 -0.014488888888888886c0.907111111111111 -1.3289777777777778 1.4010666666666667 -2.9139999999999997 1.4010666666666667 -4.527733333333333Z" stroke-width="0.4444"></path><path fill="#fcea2b" d="M10.653511111111111 19.043866666666666c0.06244444444444445 0.34604444444444443 0.3973333333333333 0.6282666666666666 0.8456 0.7129333333333333l6.037422222222221 1.1407111111111112c-0.02213333333333333 0.0044 -4.287155555555556 0.8100444444444443 -6.040266666666667 1.1412444444444445 -0.4482666666666666 0.0847111111111111 -0.7802666666666667 0.3665777777777777 -0.8426666666666666 0.7125333333333332l-1.531511111111111 5.015866666666667 -1.6516 -5.0157333333333325c-0.06244444444444445 -0.34604444444444443 -0.39448888888888883 -0.6279111111111111 -0.8428 -0.7125777777777778 -1.757822222222222 -0.33195555555555556 -3.0707111111111107 -1.1413333333333333 -3.070844444444444 -1.1414222222222221 -0.00004444444444444445 0 1.3132444444444444 -0.8089333333333333 3.070977777777778 -1.1411999999999998 0.44817777777777773 -0.08466666666666667 0.5036888888888889 -0.49075555555555556 0.5661333333333333 -0.8367111111111111l1.0669777777777778 -6.0563111111111105c0.037333333333333336 -0.20679999999999998 0.9987555555555554 -1.5446222222222221 1.0360444444444445 -1.3377777777777775 0.42217777777777776 2.3398666666666665 1.2730222222222223 7.055333333333333 1.3565333333333334 7.518444444444444Z" stroke-width="0.4444"></path><path fill="#f1b31c" d="m9.410577777777776 28.335066666666666 0.6096888888888888 -4.685911111111111c-1.1450222222222222 -1.9848444444444446 -1.9916444444444446 -4.044266666666667 -2.524755555555555 -5.510666666666666l-0.14537777777777777 0.9111555555555555c-0.055155555555555555 0.3457777777777778 -0.34844444444444445 0.6274222222222222 -0.7445333333333333 0.7121777777777778 -1.5186666666666666 0.5131111111111111 -2.681466666666666 1.1769333333333332 -2.7321333333333335 1.1879111111111111 0.0484 0.010533333333333332 1.1731999999999998 0.4121333333333333 2.731955555555555 1.093511111111111 0.3961333333333333 0.08466666666666667 0.6895555555555556 0.36635555555555555 0.7447111111111111 0.7122222222222222l1.6448888888888888 5.5797333333333325c0.033022222222222224 0.2066222222222222 0.3826222222222222 0.2066222222222222 0.41555555555555557 -0.0001333333333333333Z" stroke-width="0.4444"></path><path fill="#fcea2b" d="M25.65293333333333 7.518088888888889c0.051333333333333335 0.2759111111111111 0.32653333333333334 0.5009777777777777 0.6948888888888888 0.5685333333333332l4.204888888888889 0.7708888888888888c0.1968888888888889 0.03613333333333333 0.19915555555555553 0.24093333333333333 0.002266666666666667 0.27706666666666663 -1.115911111111111 0.20457777777777775 -3.1847999999999996 0.5838666666666666 -4.209466666666666 0.7717333333333333 -0.36835555555555555 0.06755555555555555 -0.6412 0.2923111111111111 -0.6924888888888888 0.5681777777777778l-1.1147555555555555 5.9948c-0.03062222222222222 0.1648888888888889 -0.3557333333333333 0.1648888888888889 -0.38639999999999997 0l-1.1147555555555555 -5.99471111111111c-0.051288888888888884 -0.2759111111111111 -0.3241777777777778 -0.5006666666666667 -0.6925777777777777 -0.5682222222222222 -1.0247111111111111 -0.18777777777777777 -3.093644444444444 -0.5670222222222222 -4.209688888888889 -0.7716 -0.1968888888888889 -0.03613333333333333 -0.1968888888888889 -0.24053333333333332 0 -0.27666666666666667 1.1160444444444444 -0.20457777777777775 3.185111111111111 -0.5839111111111112 4.209777777777777 -0.771911111111111 0.36835555555555555 -0.0675111111111111 0.4139555555555555 -0.39137777777777777 0.4652444444444444 -0.6672444444444444l1.3232 -4.829466666666667c0.03062222222222222 -0.1648888888888889 0.3744444444444444 -1.2317333333333331 0.4051111111111111 -1.0667555555555555 0.3469333333333333 1.8658222222222223 1.0461333333333334 5.6259999999999994 1.1148 5.995377777777777Z" stroke-width="0.4444"></path><path fill="#f1b31c" d="m24.577333333333332 16.46928888888889 0.7203111111111111 -5.278888888888888c-0.7810666666666667 -1.5827555555555555 -1.3585777777777777 -3.2249777777777773 -1.722222222222222 -4.394311111111111l-0.09915555555555555 0.7265777777777778c-0.03764444444444444 0.2757333333333333 -0.2376444444444444 0.500311111111111 -0.5078666666666667 0.5678666666666666 -0.7515999999999999 0.18777777777777777 -2.2691999999999997 0.5669777777777778 -3.087733333333333 0.771511111111111 -0.14444444444444443 0.03604444444444444 -0.14444444444444443 0.2404 0 0.2764888888888889 0.8185333333333332 0.20453333333333332 2.336044444444444 0.5835999999999999 3.0875999999999997 0.7712888888888889 0.2702222222222222 0.06746666666666666 0.4703111111111111 0.29217777777777776 0.508 0.5679111111111111l0.8175999999999999 5.991599999999999c0.022488888888888888 0.16475555555555554 0.2609333333333333 0.16475555555555554 0.28346666666666664 0Z" stroke-width="0.4444"></path></g><g id="line"><g id="line-2"><path fill="none" stroke="#000000" stroke-linecap="round" stroke-linejoin="round" stroke-width="0.8889" d="m12.126 26.033244444444446 4.075911111111111 5.051688888888889 12.338 -15.291644444444444 -0.0025777777777777774 -0.0020444444444444442c1.0295555555555556 -1.2761777777777776 1.6485777777777777 -2.897288888888889 1.6485777777777777 -4.664577777777778"></path><path fill="none" stroke="#000000" stroke-linecap="round" stroke-linejoin="round" stroke-width="0.8889" d="M21.70582222222222 3.7607999999999997c-2.3828 0.33399999999999996 -4.403244444444444 1.7972000000000001 -5.503911111111111 3.831066666666666 -1.257911111111111 -2.3244444444444445 -3.7171999999999996 -3.903511111111111 -6.545688888888889 -3.903511111111111 -4.108088888888888 0 -7.438311111111111 3.330222222222222 -7.438311111111111 7.438311111111111 0 1.7672888888888887 0.6190222222222223 3.3884 1.6484888888888887 4.664533333333333l-0.002533333333333333 0.0019999999999999996 1.2855999999999999 1.593422222222222"></path></g><path fill="none" stroke="#000000" stroke-linecap="round" stroke-linejoin="round" stroke-width="0.8889" d="m8.201644444444444 15.559822222222222 0.9204888888888888 -4.796444444444444 0.3006222222222222 1.7948444444444445c0.04822222222222222 0.28706666666666664 1.0013333333333334 5.976177777777778 1.0013333333333334 5.976177777777778 0.1124 0.6705777777777777 0.7062666666666666 1.21 1.5129777777777778 1.3740888888888887l4.859911111111111 0.9890222222222221 -4.863333333333333 0.9895999999999999c-0.804711111111111 0.16373333333333331 -1.3973333333333333 0.7028888888888888 -1.5096444444444443 1.3736444444444444l-1.3017333333333332 7.770755555555556 -1.3017777777777777 -7.770488888888888c-0.1124 -0.6707555555555555 -0.7050222222222222 -1.2099111111111112 -1.5098222222222222 -1.373688888888889L1.4472444444444443 20.89777777777778l4.863733333333333 -0.9898222222222222c0.8045333333333333 -0.1638222222222222 1.3486222222222222 -1.0988888888888888 1.4608888888888887 -1.7694666666666665"></path><path fill="none" stroke="#000000" stroke-linecap="round" stroke-linejoin="round" stroke-width="0.8889" d="m23.84742222222222 4.739822222222222 0.734 -3.8247555555555555 0.23973333333333333 1.4312444444444443c0.03844444444444444 0.22893333333333332 0.7984888888888888 4.765511111111111 0.7984888888888888 4.765511111111111 0.0896 0.5347111111111111 0.5632 0.9648888888888888 1.2064888888888887 1.0957777777777777l3.726622222222222 0.7886222222222221 -3.7292888888888887 0.7891111111111111c-0.6416888888888889 0.13057777777777776 -1.1142666666666665 0.5604888888888889 -1.2038222222222221 1.0953777777777778l-1.0380888888888888 6.196577777777777 -1.0380888888888888 -6.196311111111111c-0.08964444444444443 -0.5348444444444445 -0.5622222222222222 -0.9648444444444444 -1.2039555555555554 -1.0954666666666666l-3.8782666666666668 -0.7890666666666667 3.878444444444444 -0.7892888888888888c0.6415555555555555 -0.13062222222222222 1.0754222222222223 -0.8762666666666666 1.1649777777777777 -1.4110222222222222"></path></g></svg>